# xmcd
#
# Track frame offsets:
#	150
#	17847
#	32525
#	60462
#	78360
#	100462
#	116702
#	129595
#	149565
#	176190
#	190592
#	207677
#	218427
#	248452
#	262112
#	282375
#	304480
#	327212
#
# Disc length: 4625 seconds
#
# Revision: 1
# Processed by: cddbd v1.5.1PL0 Copyright (c) Steve Scherf et al.
# Submitted via: EasyCDDAExtractor 7.0.9.1
#
DISCID=10120f12
DTITLE=Take It For Granted - Homecooking At The Blueskitchen
DYEAR=1900
DGENRE=
TTITLE0=Screaming For Love
TTITLE1=Choose
TTITLE2=Blueskitchen
TTITLE3=Deep Down Road
TTITLE4=Wheels On The Run
TTITLE5=Nobody's Fool
TTITLE6=Ain't No One Around
TTITLE7=Like I Always Do
TTITLE8=Crying For Miles
TTITLE9=Got The News
TTITLE10=Like You
TTITLE11=Ten Times
TTITLE12=My Time
TTITLE13=Where Have You Been
TTITLE14=A Thousand Reasons
TTITLE15=No Orange Juice
TTITLE16=Sue Me
TTITLE17=Move This Body
EXTD=
EXTT0=
EXTT1=
EXTT2=
EXTT3=
EXTT4=
EXTT5=
EXTT6=
EXTT7=
EXTT8=
EXTT9=
EXTT10=
EXTT11=
EXTT12=
EXTT13=
EXTT14=
EXTT15=
EXTT16=
EXTT17=
PLAYORDER=
